<?xml version="1.0" encoding="UTF-8"?>
<!-- Created with Inkscape (http://www.inkscape.org/) -->
<svg xmlns="http://www.w3.org/2000/svg" xmlns:svg="http://www.w3.org/2000/svg" width="8.8729725mm" height="11.646273mm" viewBox="0 0 8.8729724 11.646273" version="1.1" id="svg1">
   <defs id="defs1" />
   <g id="layer1" transform="translate(-121.76075,-124.04129)">
      <g id="g3">
         <rect style="fill:#ff5555;fill-opacity:1;stroke:#000000;stroke-width:0.00942369;stroke-linecap:square" id="rect5" width="8.8635492" height="8.8635492" x="121.76546" y="124.046" ry="2.758374" />
         <circle style="fill:#ff5555;fill-opacity:1;stroke:#ffffff;stroke-width:0.209;stroke-linecap:square;stroke-dasharray:none" id="circle5" cx="126.19724" cy="134.64726" r="0.93579578" />
         <g id="g2">
            <path style="fill:#ffffff;stroke:none;stroke-width:0.01;stroke-linecap:square" d="m 125.89987,126.34793 c -0.1309,0.49159 -0.43165,1.56677 -0.43165,1.56677 0,0 0.9326,-8.1e-4 1.39889,0 0.59947,0.001 0.50032,0.17793 0.31974,0.47163 -0.53995,0.87818 -0.8164,1.28477 -1.79399,2.65391 -0.25595,0.35848 -0.62757,0.23445 -0.5002,-0.28777 0.13934,-0.57134 0.22034,-1.44204 0.54305,-1.51738 0.54332,-0.12685 0.71196,-0.19328 0.71196,-0.19328 h -2.31817 c -0.41901,0.0104 -0.47893,-0.20492 -0.15188,-0.66348 0,0 1.13739,-1.5448 1.67068,-2.1583 0.46985,-0.54051 0.65605,-0.26448 0.55157,0.1279 z" id="path6" />
            <path style="fill:#ff5555;fill-opacity:1;stroke:none;stroke-width:0.11;stroke-linecap:square;stroke-dasharray:none" d="m 126.72963,126.59002 c -0.1309,0.49158 -0.43166,1.56676 -0.43166,1.56676 0,0 0.93261,-8.1e-4 1.3989,0 0.59947,0.001 0.55078,0.21572 0.31974,0.47163 -0.70057,0.77601 0,0 -1.03917,0.65549 h -2.31818 c -0.419,0.0104 -0.47892,-0.20492 -0.15188,-0.66348 0,0 1.13739,-1.5448 1.67068,-2.1583 0.46985,-0.54052 0.65605,-0.26448 0.55157,0.1279 z" id="path7" />
            <path style="fill:#ffffff;stroke:none;stroke-width:0.11;stroke-linecap:square;stroke-dasharray:none" d="m 127.50058,126.1404 c -0.1309,0.49158 -0.43166,1.56676 -0.43166,1.56676 0,0 0.93261,-8.1e-4 1.3989,0 0.59947,0.001 0.50032,0.17793 0.31974,0.47163 -0.53995,0.87819 -0.81641,1.28478 -1.79399,2.65391 -0.25596,0.35848 -0.62757,0.23445 -0.5002,-0.28777 0.13934,-0.57133 0.22034,-1.44204 0.54305,-1.51738 0.54332,-0.12685 0.71196,-0.19328 0.71196,-0.19328 h -2.31817 c -0.41901,0.0104 -0.47893,-0.20492 -0.15188,-0.66347 0,0 1.13739,-1.5448 1.67068,-2.1583 0.46985,-0.54052 0.65605,-0.26448 0.55157,0.1279 z" id="path5" />
         </g>
      </g>
   </g>
</svg>