<?xml version="1.0" encoding="UTF-8" standalone="no"?>
<!-- Created with Inkscape (http://www.inkscape.org/) -->

<svg
   width="38.904346mm"
   height="7.4408555mm"
   viewBox="0 0 38.904347 7.4408554"
   version="1.1"
   id="svg1"
   xml:space="preserve"
   inkscape:version="1.3 (0e150ed6c4, 2023-07-21)"
   sodipodi:docname="logo-grey.svg"
   xmlns:inkscape="http://www.inkscape.org/namespaces/inkscape"
   xmlns:sodipodi="http://sodipodi.sourceforge.net/DTD/sodipodi-0.dtd"
   xmlns="http://www.w3.org/2000/svg"
   xmlns:svg="http://www.w3.org/2000/svg"><sodipodi:namedview
     id="namedview1"
     pagecolor="#ffffff"
     bordercolor="#000000"
     borderopacity="0.25"
     inkscape:showpageshadow="2"
     inkscape:pageopacity="0.0"
     inkscape:pagecheckerboard="0"
     inkscape:deskcolor="#d1d1d1"
     inkscape:document-units="mm"
     inkscape:zoom="4.1373683"
     inkscape:cx="83.386341"
     inkscape:cy="-3.9880424"
     inkscape:window-width="1920"
     inkscape:window-height="1017"
     inkscape:window-x="-8"
     inkscape:window-y="-8"
     inkscape:window-maximized="1"
     inkscape:current-layer="layer1" /><defs
     id="defs1"><rect
       x="101.17717"
       y="202.35434"
       width="692.52362"
       height="339.08026"
       id="rect14" /><clipPath
       clipPathUnits="userSpaceOnUse"
       id="clipPath2"><path
         style="fill:none;stroke:#ff0000;stroke-width:0.01;stroke-linecap:square;stroke-dasharray:none"
         d="m 76.910078,107.53514 -0.319982,1.85021 c 0,0 -0.372028,0.54488 -0.469151,0.84221 -0.09595,0.29373 -0.04595,0.62144 0,0.927 0.06097,0.40547 0.276969,1.09091 0.276969,1.09091 l -0.169569,5.93502 -0.05652,3.7419 -0.25436,1.89355 h -2.000951 c -0.351947,0.0501 -0.677249,0.16013 -0.777206,0.77721 v 8.12533 c 0.06402,0.53125 0.334322,0.74018 0.739053,0.73906 h 1.643435 v 2.00801 c 0,0 2.66314,2.85442 4.719058,3.49708 4.454181,1.39234 13.028809,0.8985 17.63412,0.14389 2.550146,-0.41786 3.278206,-1.11545 4.332596,-2.38213 0.73637,-0.88463 1.08714,-3.27742 1.08714,-3.27742 h 2.43009 c 0.37944,0.0136 0.58687,-0.15129 0.55956,-0.55956 v -8.26549 c 0.0365,-0.68757 -0.35837,-0.72812 -0.7594,-0.75941 h -2.19827 l -0.36771,-11.6788 c 0,0 0.44447,-0.77007 0.46363,-1.1511 0.0145,-0.28918 0.0208,-0.59832 -0.0959,-0.86332 -0.13696,-0.31108 -0.52758,-0.87931 -0.52758,-0.87931 v -2.49403 h 0.59953 c 0.32262,0.0304 0.38103,-0.12037 0.38769,-0.3877 v -5.85539 c 0.009,-0.27739 -0.11635,-0.43193 -0.42168,-0.42168 h -1.22106 c 0,0 -0.18528,-3.031488 -1.19404,-4.169686 -1.888226,-2.13051 -3.310343,-3.474024 -7.956193,-3.714234 -2.748651,-0.142116 -5.538568,-0.186714 -8.252513,0.271314 -1.626553,0.274513 -3.394401,0.495231 -4.725411,1.469628 -1.319202,0.965753 -2.803591,4.024511 -2.803591,4.024511 l -0.112543,2.060527 h -1.031187 l -0.479624,0.47962 0.02397,5.89936 0.319749,0.31975 h 0.959245 z"
         id="path2"
         sodipodi:nodetypes="ccssccccccccccssscccccccsscccccccsssscccccccc" /></clipPath><filter
       style="color-interpolation-filters:sRGB"
       inkscape:label="Invert"
       id="filter14"
       x="0"
       y="0"
       width="1"
       height="1"><feColorMatrix
         type="hueRotate"
         values="180"
         result="color1"
         id="feColorMatrix13" /><feColorMatrix
         values="-1 0 0 0 1 0 -1 0 0 1 0 0 -1 0 1 -0.21 -0.72 -0.07 2 0 "
         result="color2"
         id="feColorMatrix14" /></filter><rect
       x="101.17717"
       y="202.35434"
       width="692.52362"
       height="339.08026"
       id="rect15" /></defs><g
     inkscape:label="Layer 1"
     inkscape:groupmode="layer"
     id="layer1"
     transform="translate(-67.953112,-26.522298)"><path
       style="font-weight:bold;font-size:32px;font-family:Montserrat;-inkscape-font-specification:'Montserrat Bold';text-align:center;letter-spacing:0px;text-anchor:middle;white-space:pre;fill:#3d73ff;stroke-width:0.01;stroke-linecap:square;fill-opacity:1"
       d="m 67.953112,33.311071 v -0.905933 l 3.0988,-3.869267 h -2.9972 v -1.143 h 4.8006 v 0.9144 l -3.090333,3.852333 h 3.141133 v 1.151467 z m 10.320867,0 -0.550334,-1.278467 h -2.480733 l -0.550333,1.278467 h -1.405467 l 2.556933,-5.9182 h 1.278467 l 2.556933,5.9182 z m -1.786467,-4.157133 -0.745067,1.718733 h 1.481667 z m 5.969005,-1.761067 q 1.363134,0 1.9812,0.5334 0.626534,0.524933 0.626534,1.6256 0,1.0922 -0.643467,1.6002 -0.635,0.508 -1.947333,0.508 h -0.7874 v 1.651 h -1.3208 v -5.9182 z m 0.118534,3.1242 q 0.6604,0 0.897466,-0.262467 0.237067,-0.270933 0.237067,-0.778933 0,-0.516467 -0.313267,-0.728133 -0.3048,-0.220134 -0.956733,-0.220134 h -0.753533 v 1.989667 z"
       id="text14"
       aria-label="ZAP" /><path
       style="font-weight:bold;font-size:32px;font-family:Montserrat;-inkscape-font-specification:'Montserrat Bold';text-align:center;letter-spacing:0px;text-anchor:middle;white-space:pre;fill:#343f5a;stroke-width:0.01;stroke-linecap:square;fill-opacity:1"
       d="m 93.073716,29.585738 -1.6002,3.234266 h -0.7874 l -1.591734,-3.234266 v 3.725333 h -1.3208 v -5.9182 h 1.786467 l 1.524,3.2512 1.532467,-3.2512 h 1.778 v 5.9182 h -1.3208 z m 6.993474,3.725333 -0.550336,-1.278467 h -2.480733 l -0.550333,1.278467 h -1.405467 l 2.556933,-5.9182 h 1.278467 l 2.556939,5.9182 z m -1.786469,-4.157133 -0.745067,1.718733 h 1.481667 z m 5.969009,-1.761067 q 1.36313,0 1.9812,0.5334 0.62653,0.524933 0.62653,1.6256 0,1.0922 -0.64346,1.6002 -0.635,0.508 -1.94734,0.508 h -0.7874 v 1.651 h -1.3208 v -5.9182 z m 0.11853,3.1242 q 0.6604,0 0.89747,-0.262467 0.23707,-0.270933 0.23707,-0.778933 0,-0.516467 -0.31327,-0.728133 -0.3048,-0.220134 -0.95673,-0.220134 h -0.75354 v 1.989667 z"
       id="text15"
       aria-label="MAP" /><path
       style="fill:#ffcc00;stroke:none;stroke-width:0.142;stroke-dasharray:none"
       d="m 85.021504,33.933632 c -0.109864,-0.06215 -0.154053,-0.184697 -0.127636,-0.354053 0.0091,-0.05481 0.03874,-0.248938 0.06701,-0.431288 0.02827,-0.182351 0.05776,-0.371321 0.06529,-0.419946 0.03889,-0.249433 0.09612,-0.62684 0.13255,-0.873327 0.02246,-0.152056 0.05123,-0.338569 0.06393,-0.414469 0.06407,-0.383452 0.06651,-0.44997 0.01916,-0.512245 -0.05768,-0.07586 -0.119141,-0.0826 -0.573199,-0.06279 -0.187745,0.0082 -0.368903,0.01248 -0.402566,0.0095 -0.07956,-0.007 -0.146714,-0.04674 -0.178813,-0.105895 -0.02827,-0.05207 -0.03322,-0.159778 -0.0098,-0.21185 0.01212,-0.0269 0.460566,-0.65492 0.806338,-1.129172 0.04011,-0.05501 0.170453,-0.235143 0.289674,-0.400286 0.11922,-0.165142 0.331494,-0.459072 0.471736,-0.653177 0.140234,-0.194106 0.451676,-0.625529 0.692089,-0.95872 0.240413,-0.333192 0.466176,-0.64593 0.50169,-0.694974 0.117542,-0.162338 0.187343,-0.207293 0.306384,-0.19733 0.08214,0.0069 0.161665,0.05671 0.204167,0.127936 0.0282,0.04723 0.0302,0.05958 0.02533,0.153441 -0.0029,0.05616 -0.03322,0.273543 -0.06715,0.483118 -0.224091,1.380424 -0.312754,1.971418 -0.303908,2.02557 0.01198,0.07346 0.08513,0.139613 0.161765,0.146328 0.04735,0.0042 0.37488,-0.02434 0.642714,-0.05593 0.184681,-0.02179 0.31721,-0.01553 0.394574,0.01864 0.06299,0.0278 0.120289,0.09592 0.130958,0.15563 0.01148,0.0644 -0.0084,0.16132 -0.04642,0.228553 -0.06149,0.108108 -0.65288,0.948093 -1.580906,2.245316 -0.08084,0.113055 -0.219944,0.307541 -0.309045,0.432194 -0.157045,0.219709 -0.245773,0.343326 -0.548426,0.764076 -0.40794,0.56712 -0.418336,0.580655 -0.486365,0.632692 -0.111701,0.08547 -0.246189,0.106131 -0.341137,0.05242 z"
       id="path16"
       sodipodi:nodetypes="sssssssssssssssssssssssssssssss" /></g></svg>
