<?xml version="1.0" encoding="UTF-8" standalone="no"?>
<svg
   id="Layer_1"
   data-name="Layer 1"
   viewBox="0 0 472.6 124.92"
   version="1.1"
   sodipodi:docname="Radx-logo-web-white.svg"
   inkscape:version="1.3 (0e150ed6c4, 2023-07-21)"
   xmlns:inkscape="http://www.inkscape.org/namespaces/inkscape"
   xmlns:sodipodi="http://sodipodi.sourceforge.net/DTD/sodipodi-0.dtd"
   xmlns="http://www.w3.org/2000/svg"
   xmlns:svg="http://www.w3.org/2000/svg">
  <sodipodi:namedview
     id="namedview1"
     pagecolor="#ffffff"
     bordercolor="#000000"
     borderopacity="0.25"
     inkscape:showpageshadow="2"
     inkscape:pageopacity="0.0"
     inkscape:pagecheckerboard="0"
     inkscape:deskcolor="#d1d1d1"
     inkscape:zoom="2.3085061"
     inkscape:cx="236.3"
     inkscape:cy="62.594593"
     inkscape:window-width="1920"
     inkscape:window-height="1017"
     inkscape:window-x="-8"
     inkscape:window-y="1072"
     inkscape:window-maximized="1"
     inkscape:current-layer="Layer_1" />
  <defs
     id="defs1">
    <style
       id="style1">.cls-1{fill:#111;}</style>
  </defs>
  <path
     class="cls-1"
     d="M263.11,430c1.54-.62,2.8-1.14,4.07-1.64,15.41-6.12,16.87-24.34,10.91-34.17-4.5-7.41-11.63-10.47-19.73-11.31-12-1.26-24.13-.3-36.2-.51-1,0-2.17-.33-3.16.27v11.8h24.94c4.18,0,8.39-.23,12.54.54,4.72.89,8.78,2.76,10.41,7.79,3,9.09-2.8,17.09-12.75,17.3-10.68.22-21.36.07-32,.13-1,0-2.18-.39-3,.29v38.24h13.16V432.21c4.91,0,9.58.08,14.25,0a4.09,4.09,0,0,1,3.91,2c5.34,7.7,10.8,15.31,16.22,22.95.61.86,1,1.89,2.43,1.87,4.74-.07,9.48,0,14.71,0Zm123.65-35.88c7.9.46,15.5-.47,23,.69,21.45,3.31,26.54,27.68,16.12,41.78-5.5,7.45-13.37,10-22.32,9.95-5.56,0-11.12,0-16.71,0V459c7.62-.27,15,.14,22.38-.44C429,457,443,443.6,445.18,424c1.73-15.82-7.8-31.83-22.37-38.16-11.67-5.07-23.88-3.37-36.05-3.73ZM533,382.39c-4.52,0-8.5.12-12.47-.05a4.65,4.65,0,0,0-4.61,2.33c-5.7,8.39-11.59,16.63-17.52,25.1-6-8.64-11.84-17.07-17.72-25.48-.58-.83-.9-2-2.37-1.93-4.75.08-9.5,0-14.83,0L490.29,420l-27.71,39c5.37,0,10.15-.06,14.93,0a3.54,3.54,0,0,0,3.4-1.79c4.6-6.75,9.33-13.42,14-20.12ZM370,459c-1.31-3.63-2.51-7-3.73-10.33q-11.67-32.08-23.35-64.16c-.34-.95-.3-2.21-1.91-2.19-4.37.06-8.75,0-13.51,0,2.19,6.14,4.28,11.93,6.31,17.74,6.66,19,13.52,37.88,21,56.57.4,1,.28,2.41,2.07,2.38C361.14,458.9,365.41,459,370,459Zm-73.56,0c4.5,0,8.56,0,12.61,0,1.26,0,1.72-.58,2.13-1.6q7.77-19,15.58-38a2.63,2.63,0,0,0,.25-2.23c-2.22-5.66-4.33-11.37-6.59-17.38C312.38,419.61,304.49,439.11,296.45,459ZM504.7,439.57c4.23,6.06,8.32,11.93,12.43,17.78.49.69.74,1.62,1.91,1.61,4.81,0,9.61,0,14.9,0l-21.11-29.87c-.25.14-.47.2-.58.35C509.75,432.77,507.26,436.12,504.7,439.57Zm-319.65,3.91c-.3-1.87-1.25-3.06-3.14-3a2.8,2.8,0,0,0-2.88,3.1,2.77,2.77,0,0,0,3.08,2.88C184,446.44,184.81,445.14,185.05,443.48Zm.65-7.74a1.79,1.79,0,0,0,1.46-2.14,1.92,1.92,0,0,0-2.19-1.88,1.84,1.84,0,0,0-1.73,2C183.29,435,183.93,435.79,185.7,435.74Zm-65-66.18a9,9,0,0,0-17.9-.17,9,9,0,0,0,9.09,9.1A8.69,8.69,0,0,0,120.69,369.56ZM136.74,481.2a9,9,0,1,0-8.93-8.94A9,9,0,0,0,136.74,481.2ZM63.58,432.88A8.89,8.89,0,0,0,72.36,442a9,9,0,1,0,.24-17.9A8.86,8.86,0,0,0,63.58,432.88ZM176.1,417.82a9,9,0,0,0,9-8.9,9.14,9.14,0,0,0-8.88-9,8.89,8.89,0,0,0-9,9.11A8.78,8.78,0,0,0,176.1,417.82Zm2.65,12.93a7.65,7.65,0,0,0-7.24-7.62,7.5,7.5,0,0,0-7.4,7.4,7.32,7.32,0,0,0,14.64.22ZM77,418.58a7.48,7.48,0,0,0,7.55-7A7.4,7.4,0,0,0,69.75,411,7.55,7.55,0,0,0,77,418.58Zm63.84-44.18a7.4,7.4,0,0,0-14.79-.13,7.6,7.6,0,0,0,7.47,7.41A7.68,7.68,0,0,0,140.82,374.4ZM158,474.88a7.46,7.46,0,0,0,7.31-7.22,7.39,7.39,0,0,0-14.77-.11A7.36,7.36,0,0,0,158,474.88Zm-81-28.07a7.63,7.63,0,0,0-7.32,7.27,7.4,7.4,0,1,0,7.32-7.27Zm101.68-59a7.42,7.42,0,0,0-7.45-7.32,7.32,7.32,0,0,0-7.16,7.28,7.07,7.07,0,0,0,7.41,7.25A7.18,7.18,0,0,0,178.74,387.84Zm-56.29,79.85a7.3,7.3,0,1,0-14.6-.17,7.3,7.3,0,0,0,14.6.17ZM97.91,374.38a7.3,7.3,0,1,0-14.6-.09,7.3,7.3,0,1,0,14.6.09Zm67.19,71.29a5.11,5.11,0,0,0-5.17-5.05,5.14,5.14,0,0,0,.19,10.27A5.09,5.09,0,0,0,165.1,445.67ZM88.54,401.26a5.1,5.1,0,0,0,5.08-5.09,5.21,5.21,0,0,0-5-5.26,5.14,5.14,0,0,0-5.21,5.3A5,5,0,0,0,88.54,401.26Zm84.72,49.94a4.93,4.93,0,0,0-5,5.12,5.1,5.1,0,0,0,5.16,5,5.28,5.28,0,0,0,5-5.18A5.08,5.08,0,0,0,173.26,451.2ZM160,377.51a5.15,5.15,0,0,0,5.15-5,4.93,4.93,0,0,0-5-5.11,5.07,5.07,0,0,0-5.2,5A5.26,5.26,0,0,0,160,377.51Zm-16.44,7.72a5.24,5.24,0,0,0,4.64,5.55,5.09,5.09,0,0,0,1-10.14A5.21,5.21,0,0,0,143.52,385.23Zm-55,79.22a5.09,5.09,0,0,0-.1,10.17,5.09,5.09,0,1,0,.1-10.17ZM75.14,380.62a5.08,5.08,0,0,0,.13,10.16,5.08,5.08,0,1,0-.13-10.16ZM99.8,451.19a5,5,0,0,0-5,5.14,5.1,5.1,0,1,0,10.2-.18A5,5,0,0,0,99.8,451.19Zm50.41-87.75c-.31-1.81-1.37-2.94-3.23-2.83a2.74,2.74,0,0,0-2.77,2.94,3,3,0,1,0,6-.11Zm6.46,31.83c-1.64.34-2.89,1.27-2.83,3.17a3,3,0,1,0,6-.09C159.81,396.52,158.69,395.44,156.67,395.27Zm-6.45,58.8c-.18-1.91-1.2-3.06-3.06-3.05a2.76,2.76,0,0,0-2.94,2.79,2.73,2.73,0,0,0,2.87,3.12C149,457,150,455.86,150.22,454.07ZM63.57,398.5a2.72,2.72,0,0,0,3,2.93,3,3,0,1,0-.12-6.09A2.8,2.8,0,0,0,63.57,398.5Zm37.55,82.83c2,0,3.16-1,3.23-2.87a2.88,2.88,0,0,0-2.89-3.18,2.72,2.72,0,0,0-3.07,2.91A2.77,2.77,0,0,0,101.12,481.33Zm.61-90.44a2.69,2.69,0,0,0,2.61-3,2.82,2.82,0,0,0-3-3A2.77,2.77,0,0,0,98.39,388C98.47,389.86,99.47,390.9,101.73,390.89Zm-10,49.56c-1.72.27-3,1.07-3,3a2.72,2.72,0,0,0,2.87,3.05,2.84,2.84,0,0,0,3.08-2.91C94.79,441.76,93.57,440.77,91.77,440.45ZM63.44,410.16A1.92,1.92,0,0,0,65.36,408a2,2,0,0,0-4,.17A1.92,1.92,0,0,0,63.44,410.16Zm96.52-4a1.91,1.91,0,0,0-2.09,2,2,2,0,0,0,4,.16A1.93,1.93,0,0,0,160,406.13Zm-47,75.15a1.86,1.86,0,0,0-2.12-1.92,1.79,1.79,0,0,0-1.8,1.94,1.86,1.86,0,0,0,2,2.11A1.9,1.9,0,0,0,112.94,481.28Zm26.74-120.65c-.22-1.17-.74-2.13-2.06-2.15a1.9,1.9,0,0,0-2,1.81,1.92,1.92,0,0,0,1.82,2.28C138.77,362.72,139.34,361.77,139.68,360.63ZM90.67,434a2,2,0,0,0-1.83-2.27,1.9,1.9,0,0,0-2.16,1.94,1.84,1.84,0,0,0,1.68,2.07A1.9,1.9,0,0,0,90.67,434Zm20-51c-1.07.09-1.62.9-1.52,2.18a2,2,0,0,0,4-.26C113.07,383.7,112.35,382.87,110.69,383Zm29,74c-.27-1-.71-2-1.87-2a2,2,0,0,0-2.19,2.22,1.86,1.86,0,0,0,2,1.83C138.89,459,139.43,458.08,139.68,456.94Z"
     transform="translate(-61.34 -358.48)"
     id="path1"
     style="fill:#ffffff" />
</svg>
