<?xml version="1.0" encoding="UTF-8"?>
<!-- Created with Inkscape (http://www.inkscape.org/) -->
<svg xmlns="http://www.w3.org/2000/svg" xmlns:svg="http://www.w3.org/2000/svg" width="8.8884363mm" height="8.8884363mm" viewBox="0 0 8.8884363 8.8884366" version="1.1" id="svg1">
   <defs id="defs1" />
   <g id="layer1" transform="translate(-121.75475,-124.03529)">
      <g id="g13" transform="matrix(1.0017428,0,0,1.0017428,805.83449,126.68573)">
         <rect style="fill:#04a36e;fill-opacity:1;stroke:#000000;stroke-width:0.00942369;stroke-linecap:square" id="rect3-0" width="8.8635492" height="8.8635492" x="-682.88489" y="-2.6411214" ry="2.758374" />
         <path style="fill:#ffffff;stroke:none;stroke-width:0.01;stroke-linecap:square" d="m -677.9501,-0.442954 c -0.1309,0.491583 -0.43166,1.566765 -0.43166,1.566765 0,0 0.9326,-8.08e-4 1.3989,0 0.59947,0.001 0.50032,0.177929 0.31974,0.47163 -0.53995,0.878185 -0.81641,1.284776 -1.79399,2.653911 -0.25596,0.358482 -0.62757,0.234452 -0.5002,-0.287773 0.13934,-0.571333 0.22034,-1.442038 0.54305,-1.517379 0.54332,-0.126847 0.71196,-0.193275 0.71196,-0.193275 h -2.31817 c -0.41901,0.01039 -0.47893,-0.204921 -0.15188,-0.663477 0,0 1.13739,-1.544801 1.67068,-2.158301 0.46985,-0.540519 0.65605,-0.26448 0.55157,0.127899 z" id="path3-7" />
      </g>
   </g>
</svg>