<?xml version="1.0" encoding="UTF-8"?>
<!-- Created with Inkscape (http://www.inkscape.org/) -->
<svg xmlns="http://www.w3.org/2000/svg" xmlns:svg="http://www.w3.org/2000/svg" width="8.8729725mm" height="11.646272mm" viewBox="0 0 8.8729724 11.646272" version="1.1" id="svg1">
   <defs id="defs1" />
   <g id="layer1" transform="translate(-111.97679,-123.94677)">
      <g id="g10" transform="translate(-42.98458,108.44157)">
         <rect style="fill:#ff9955;fill-opacity:1;stroke:#000000;stroke-width:0.00942369;stroke-linecap:square" id="rect3" width="8.8635492" height="8.8635492" x="154.96608" y="15.509908" ry="2.758374" />
         <circle style="fill:#ff9955;fill-opacity:1;stroke:#ffffff;stroke-width:0.209;stroke-linecap:square;stroke-dasharray:none" id="circle3" cx="159.39786" cy="26.111172" r="0.93579578" />
         <path id="path9" style="fill:#ffffff;stroke-width:0.0629563" d="m 160.83872,17.517297 c -0.31736,0.0021 -0.60597,0.155961 -0.78289,0.420464 -0.118,0.176427 -0.15476,0.293877 -0.16442,0.525646 l -0.008,0.191558 -0.88543,0.886996 -0.8854,0.886995 h -0.15063 c -0.2463,0 -0.45048,0.07081 -0.64266,0.222855 -0.11276,0.0892 -0.24626,0.282371 -0.29659,0.42915 -0.0462,0.134852 -0.0625,0.361623 -0.0358,0.500367 0.027,0.140383 0.13107,0.351313 0.22693,0.45983 0.1504,0.170253 0.38843,0.294943 0.60714,0.318016 0.32014,0.03377 0.57519,-0.05567 0.80013,-0.280603 0.19064,-0.190644 0.27419,-0.377153 0.29108,-0.649729 l 0.008,-0.124505 0.23726,-0.23769 0.23727,-0.23769 0.89292,-0.892917 0.23743,-0.236975 0.23739,-0.237008 0.12434,-0.0081 c 0.27664,-0.01808 0.4587,-0.09945 0.6496,-0.290363 0.20127,-0.201263 0.28549,-0.395915 0.28549,-0.675169 0,-0.08307 -0.004,-0.174021 -0.066,-0.174021 -0.0463,0 -0.0895,0.03508 -0.32826,0.266516 -0.15124,0.146582 -0.24066,0.219394 -0.29482,0.266515 -0.0896,0.01426 -0.30712,0.0526 -0.30712,0.0526 l -0.28755,-0.07817 -0.12101,-0.311748 0.0892,-0.284706 0.28347,-0.286133 c 0.24934,-0.251666 0.27784,-0.25361 0.28349,-0.339944 0.005,-0.08254 -0.12972,-0.08254 -0.2342,-0.08201 z m -2.89224,3.361403 c 0.23711,0 0.27177,0.0036 0.30084,0.03061 0.052,0.0485 0.27325,0.443401 0.27325,0.487841 0,0.0221 -0.0583,0.141214 -0.12968,0.264726 -0.113,0.195681 -0.13711,0.227133 -0.18739,0.244457 -0.0542,0.01868 -0.42824,0.02623 -0.50954,0.01028 -0.0528,-0.01037 -0.0904,-0.0592 -0.22152,-0.288345 -0.092,-0.160686 -0.11685,-0.217692 -0.10889,-0.249696 0.0162,-0.06517 0.24292,-0.449449 0.28083,-0.475999 0.0261,-0.01833 0.0964,-0.02388 0.3021,-0.02388 z" />
      </g>
   </g>
</svg>